<svg xmlns="http://www.w3.org/2000/svg" viewBox="-53.5 -4 268 268">
    <style>
        path { fill: #12798c; }
        @media (prefers-color-scheme: dark) { path { fill: #4fc3d9; } }
    </style>
    <path d="M0.00,259.31 C1.79,258.33 16.98,231.67 21.84,227.20 C26.70,222.73 41.54,225.26 43.76,219.05 C45.98,212.84 38.76,177.90 41.85,171.35 C44.94,164.80 65.29,164.62 71.60,160.06 C77.91,155.50 93.93,127.06 98.66,130.34 C103.39,133.62 107.26,178.04 114.20,189.62 C121.14,201.20 156.53,231.78 161.15,234.60 C165.77,237.42 159.97,220.23 155.79,215.00 C151.61,209.77 128.89,198.43 123.53,187.50 C118.17,176.57 107.56,128.18 107.55,116.63 C107.54,105.08 122.52,88.64 123.41,83.57 C124.30,78.50 115.71,75.94 115.57,71.04 C115.43,66.14 119.48,43.03 122.19,39.47 C124.90,35.91 136.17,43.35 139.98,38.96 C143.79,34.57 158.69,2.48 156.47,0.00 C154.25,-2.48 125.59,12.79 120.03,16.68 C114.47,20.57 107.95,28.81 106.42,34.99 C104.89,41.17 108.61,65.37 106.28,72.34 C103.95,79.31 87.79,91.27 85.46,97.76 C83.13,104.25 87.27,124.96 85.27,130.73 C83.27,136.50 70.96,147.89 67.42,149.67 C63.88,151.45 57.59,145.14 53.45,146.71 C49.31,148.28 32.02,157.02 30.17,163.79 C28.32,170.56 39.53,199.62 36.81,207.65 C34.09,215.68 9.82,230.31 5.73,236.05 C1.64,241.79 -1.79,260.29 0.00,259.31 Z" />
</svg>
